<svg width="24" height="24" viewBox="0 0 24 24" fill="none"
	xmlns="http://www.w3.org/2000/svg">
	<rect width="24" height="24" rx="4" fill="white"/>
	<g clip-path="url(#clip0_11_276)">
		<path d="M11.9901 3.00006C14.3592 2.99151 16.6355 3.91978 18.323 5.58254C20.0106 7.2453 20.9724 9.50775 20.999 11.8767C21.0174 13.0655 20.7997 14.2461 20.3584 15.3501C19.9171 16.4541 19.2611 17.4596 18.4283 18.3081C17.5956 19.1567 16.6026 19.8315 15.5071 20.2934C14.4116 20.7553 13.2353 20.9951 12.0464 20.9989C9.71346 21.0111 7.46695 20.1168 5.78057 18.5046C4.09419 16.8924 3.09972 14.6883 3.0069 12.3571C2.9595 11.1471 3.15665 9.93988 3.58656 8.80779C4.01648 7.67569 4.67032 6.64195 5.50897 5.7684C6.34762 4.89485 7.35387 4.19945 8.46748 3.72378C9.5811 3.24812 10.7792 3.00196 11.9901 3.00006ZM3.60214 12.0217C3.60318 13.1265 3.82237 14.2201 4.24711 15.24C4.67185 16.2598 5.2938 17.1858 6.07725 17.9646C6.86071 18.7435 7.79024 19.36 8.81254 19.7788C9.83484 20.1975 10.9298 20.4103 12.0345 20.4048C13.1395 20.4009 14.2328 20.1791 15.2519 19.7519C16.271 19.3248 17.1959 18.7007 17.9734 17.9155C18.7509 17.1303 19.3658 16.1994 19.783 15.1761C20.2001 14.1528 20.4112 13.0573 20.4043 11.9523C20.3921 9.72966 19.4999 7.60235 17.923 6.03601C16.346 4.46967 14.2128 3.59187 11.9901 3.59476C10.8855 3.59535 9.79184 3.81398 8.77187 4.23815C7.75191 4.66232 6.8257 5.28369 6.04637 6.06658C5.26704 6.84948 4.64992 7.77852 4.23039 8.80043C3.81085 9.82234 3.59773 10.917 3.60214 12.0217Z" fill="#190100"/>
		<path d="M12.0109 4.31642C13.0203 4.31432 14.0201 4.51183 14.9529 4.89763C15.8856 5.28343 16.7329 5.84988 17.4459 6.56439C18.1589 7.2789 18.7236 8.12736 19.1074 9.06095C19.4913 9.99453 19.6867 10.9948 19.6825 12.0042C19.6877 13.0161 19.4917 14.019 19.1059 14.9545C18.7202 15.89 18.1523 16.7395 17.4354 17.4537C16.7185 18.1678 15.8668 18.7324 14.9298 19.1145C13.9928 19.4966 12.9892 19.6886 11.9773 19.6795C10.9681 19.6797 9.96878 19.4804 9.0368 19.0931C8.10482 18.7058 7.25856 18.1381 6.54666 17.4227C5.83477 16.7073 5.27126 15.8583 4.88853 14.9244C4.50581 13.9905 4.31141 12.9902 4.3165 11.9809C4.32208 9.94464 5.13547 7.99382 6.5781 6.55679C8.02074 5.11976 9.97469 4.31401 12.0109 4.31642ZM18.8332 9.54357C18.7905 9.42304 18.7507 9.32582 18.7195 9.22519C18.6923 9.06899 18.6136 8.9264 18.4959 8.82016C18.3782 8.71392 18.2284 8.65014 18.0702 8.63902C17.9128 8.61818 17.7585 8.5781 17.6109 8.51965C17.4835 8.47416 17.2749 8.51053 17.2555 8.33827C17.2362 8.166 17.4414 8.14497 17.5545 8.06708C17.679 7.98123 17.8138 7.91072 17.944 7.8334C17.8519 7.70491 17.7524 7.58097 17.6694 7.4468C17.6189 7.35407 17.5411 7.27924 17.4464 7.23252C17.3518 7.1858 17.245 7.16949 17.1407 7.18585C16.8706 7.20688 16.5972 7.19094 16.3254 7.1898C16.2498 7.1898 16.1645 7.19323 16.1253 7.11363C16.0787 7.01869 16.1549 6.95841 16.2123 6.90099C16.3276 6.77138 16.4535 6.65157 16.5886 6.5428C16.7114 6.45468 16.6728 6.4183 16.5812 6.35292C16.4277 6.24376 16.2771 6.1295 16.1264 6.01181C16.0919 5.98337 16.0502 5.96492 16.0059 5.95851C15.9616 5.95209 15.9164 5.95794 15.8751 5.97541C15.5721 6.06751 15.2651 6.14598 14.9593 6.22956C14.8791 6.25116 14.7887 6.28016 14.7245 6.20853C14.6471 6.12211 14.7136 6.03797 14.7557 5.95951C14.8215 5.82367 14.8985 5.69357 14.986 5.57062C15.0866 5.4427 15.0371 5.39038 14.9155 5.34319C14.7461 5.27876 14.5772 5.21318 14.4089 5.14647C14.375 5.13107 14.3376 5.1248 14.3005 5.12829C14.2634 5.13178 14.2279 5.14493 14.1974 5.16639C13.9734 5.30625 13.7455 5.44043 13.5152 5.56437C13.3947 5.62976 13.2662 5.78326 13.132 5.69173C12.9831 5.58996 13.1201 5.42906 13.1451 5.29659C13.1735 5.14535 13.2207 4.99753 13.2588 4.84801C13.1036 4.81901 12.9484 4.79114 12.7938 4.75987C12.6971 4.72859 12.5931 4.72822 12.4962 4.75879C12.3993 4.78936 12.3143 4.84934 12.2531 4.93042C12.0792 5.12933 11.8933 5.3175 11.6965 5.49386C11.6294 5.55924 11.5669 5.66842 11.4532 5.61611C11.3395 5.56381 11.3764 5.44554 11.3736 5.35173C11.3673 5.15729 11.4435 4.8821 11.3446 4.78829C11.2172 4.66719 10.9654 4.8213 10.7647 4.82982C10.6973 4.82959 10.6314 4.8497 10.5756 4.88753C10.5198 4.92537 10.4767 4.97917 10.452 5.04188C10.3229 5.29772 10.1712 5.5422 10.0262 5.78951C9.97787 5.87138 9.94543 5.98962 9.8232 5.97256C9.70097 5.95551 9.70212 5.83329 9.66573 5.74517C9.59183 5.56437 9.64924 5.26872 9.48096 5.21244C9.31267 5.15615 9.09549 5.34206 8.89935 5.41995C8.85038 5.43716 8.80709 5.46748 8.77412 5.50757C8.74115 5.54766 8.71976 5.59601 8.71232 5.64738C8.65888 5.89811 8.59066 6.14598 8.51505 6.39102C8.47525 6.52008 8.49457 6.72078 8.31889 6.73727C8.15971 6.75205 8.14835 6.55193 8.06819 6.4496C7.97267 6.32679 7.94767 6.07661 7.83226 6.07319C7.6998 6.06921 7.56391 6.24378 7.4269 6.33418C7.34218 6.38325 7.27374 6.45611 7.23008 6.54374C7.18642 6.63137 7.16944 6.72989 7.18129 6.82707C7.20176 7.10509 7.1864 7.38539 7.18469 7.66455C7.18469 7.74755 7.18472 7.83965 7.09034 7.8766C7.00393 7.91015 6.94933 7.84252 6.89703 7.78964C6.76846 7.67302 6.6489 7.54682 6.53941 7.41213C6.4547 7.29842 6.41039 7.32117 6.34273 7.41213C6.22903 7.57075 6.11021 7.72823 5.99025 7.88344C5.96689 7.91239 5.95176 7.94708 5.94646 7.9839C5.94116 8.02072 5.94585 8.05829 5.9601 8.09265C6.05049 8.39625 6.13065 8.70214 6.21365 9.00858C6.23753 9.10012 6.28587 9.20814 6.18638 9.28092C6.08688 9.35369 6.01581 9.26328 5.93793 9.22803C5.75202 9.1456 5.56613 8.88693 5.41434 8.96823C5.26254 9.04953 5.24376 9.33492 5.15621 9.52709C5.13193 9.57698 5.12231 9.63274 5.12845 9.68789C5.13458 9.74304 5.15625 9.79533 5.19091 9.83867C5.36146 10.1064 5.50985 10.3867 5.66449 10.663C5.70031 10.7267 5.75032 10.8 5.68892 10.8717C5.62752 10.9433 5.55019 10.9121 5.47628 10.8995C5.44671 10.8944 5.41944 10.8853 5.38817 10.8774L4.84863 10.7341C4.81793 10.9268 4.79179 11.1213 4.75483 11.3123C4.73615 11.3812 4.73828 11.4541 4.76094 11.5218C4.7836 11.5895 4.82578 11.6489 4.88218 11.6927C5.06752 11.8587 5.24205 12.0372 5.4109 12.2209C5.49675 12.3141 5.67586 12.3851 5.60536 12.542C5.54339 12.6796 5.37792 12.608 5.25285 12.6222C5.09138 12.6404 4.86116 12.5449 4.78669 12.6507C4.71221 12.7564 4.81625 12.9662 4.81625 13.1305C4.81175 13.228 4.83872 13.3244 4.89318 13.4053C4.94765 13.4863 5.02671 13.5476 5.1187 13.5802C5.37624 13.7042 5.61559 13.8645 5.86176 14.0129C5.91861 14.0481 5.98113 14.0913 5.96919 14.1715C5.95725 14.2517 5.88789 14.2739 5.82137 14.2938C5.73438 14.3193 5.64685 14.3421 5.55987 14.3665C5.13803 14.4802 5.1511 14.4802 5.32166 14.893C5.35879 15.0071 5.42776 15.1082 5.52042 15.1845C5.61308 15.2607 5.72557 15.3089 5.84469 15.3234C6.03759 15.359 6.22761 15.4088 6.41321 15.4723C6.52691 15.5093 6.70884 15.4911 6.73158 15.6429C6.75716 15.8083 6.56671 15.8322 6.46495 15.9118C6.33703 16.0119 6.08404 16.0255 6.07266 16.1654C6.063 16.2922 6.2472 16.4303 6.33645 16.5696C6.38398 16.6553 6.45602 16.7248 6.54333 16.7693C6.63065 16.8138 6.72926 16.8311 6.82652 16.8192C7.11078 16.7999 7.40016 16.8146 7.68669 16.8158C7.75492 16.8158 7.82941 16.8158 7.86238 16.8914C7.89535 16.967 7.85046 17.025 7.80554 17.0733C7.68521 17.2086 7.55463 17.3345 7.41496 17.4497C7.29841 17.5367 7.32682 17.5731 7.42006 17.6407C7.56105 17.7419 7.69923 17.8477 7.83056 17.9608C7.8706 17.9993 7.92124 18.0249 7.97595 18.0343C8.03067 18.0437 8.08695 18.0365 8.13755 18.0137C8.4383 17.9153 8.74758 17.8431 9.05401 17.7607C9.12678 17.7408 9.20467 17.7118 9.2655 17.78C9.33714 17.8608 9.28084 17.9375 9.24104 18.0074C9.16451 18.1547 9.07906 18.2971 8.9852 18.4339C8.90731 18.5407 8.93178 18.5931 9.04207 18.6363C9.18193 18.6931 9.32633 18.742 9.46107 18.8068C9.52622 18.8432 9.60058 18.8595 9.67496 18.854C9.74935 18.8484 9.82046 18.8212 9.87948 18.7756C10.137 18.605 10.4076 18.4526 10.6817 18.3088C10.8477 18.2212 10.9307 18.286 10.9029 18.4697C10.8786 18.6041 10.8465 18.737 10.8068 18.8677C10.7317 19.1406 10.7317 19.1326 11.02 19.1934C11.1664 19.2513 11.3282 19.2579 11.4789 19.2122C11.6296 19.1665 11.7604 19.0711 11.85 18.9416C11.9774 18.7825 12.1205 18.6366 12.277 18.5061C12.3452 18.4395 12.41 18.3355 12.522 18.3793C12.6476 18.4259 12.6084 18.5538 12.6249 18.6544C12.6556 18.8409 12.5157 19.0934 12.6817 19.1997C12.8307 19.2952 13.0587 19.165 13.2537 19.1491C13.3169 19.1459 13.3778 19.1246 13.4293 19.0879C13.4808 19.0511 13.5207 19.0003 13.5442 18.9416C13.6863 18.667 13.8483 18.4026 14.0041 18.1354C14.0382 18.0785 14.0814 18.016 14.161 18.0216C14.2406 18.0273 14.2674 18.0978 14.2918 18.1615C14.3083 18.2036 14.3197 18.2474 14.3322 18.2911C14.4919 18.8597 14.4925 18.8597 15.0457 18.5919C15.144 18.5442 15.2458 18.5146 15.2731 18.3719C15.3328 18.0768 15.4186 17.7869 15.4971 17.4952C15.5238 17.3957 15.5295 17.2638 15.6597 17.2501C15.7734 17.2382 15.8075 17.3638 15.8615 17.4395C15.9752 17.6004 16.0287 17.9136 16.1691 17.9097C16.3396 17.9045 16.5 17.6754 16.6711 17.552C16.7205 17.5181 16.7596 17.4713 16.7843 17.4166C16.8089 17.362 16.8181 17.3017 16.8109 17.2422C16.8018 16.9329 16.8075 16.623 16.8109 16.3138C16.8109 16.2376 16.8109 16.1534 16.8962 16.1199C16.9815 16.0863 17.0372 16.1512 17.0906 16.204C17.2086 16.3103 17.3193 16.4242 17.4221 16.5451C17.5125 16.6589 17.5722 16.6697 17.6586 16.5486C17.7547 16.4133 17.8582 16.283 17.9633 16.1546C17.999 16.1168 18.0228 16.0694 18.0317 16.0183C18.0406 15.9671 18.0342 15.9144 18.0133 15.8669C17.9325 15.6233 17.8653 15.3755 17.8121 15.1244C17.7825 14.9925 17.6563 14.8316 17.7956 14.7264C17.9349 14.6212 18.0611 14.7742 18.1799 14.8401C18.6029 15.0806 18.5858 15.0772 18.7757 14.6275C18.8293 14.5305 18.8525 14.4197 18.8423 14.3094C18.8322 14.1992 18.7892 14.0945 18.7189 14.0089C18.605 13.8489 18.5057 13.6789 18.4221 13.5012C18.3613 13.3818 18.1947 13.263 18.3124 13.1208C18.417 12.9935 18.5677 13.1117 18.6922 13.143C19.1942 13.2704 19.1828 13.2732 19.2277 12.7382C19.2432 12.6397 19.2321 12.5389 19.1957 12.4461C19.1594 12.3533 19.099 12.2718 19.0208 12.21C18.815 12.0332 18.633 11.8291 18.4426 11.6358C18.3943 11.5869 18.3459 11.5301 18.3772 11.4561C18.4085 11.3822 18.4824 11.3783 18.5517 11.3777C18.7257 11.3777 18.8997 11.3697 19.0725 11.3817C19.1987 11.3902 19.238 11.3402 19.222 11.2259C19.1953 11.032 19.1652 10.8381 19.1413 10.6437C19.1294 10.5465 19.0674 10.5101 18.9895 10.468C18.7109 10.3174 18.4364 10.1582 18.1618 10.0001C18.0901 9.9592 18.0037 9.91712 18.0168 9.81819C18.0299 9.71927 18.1265 9.70164 18.2044 9.6789C18.4082 9.61025 18.6191 9.56484 18.8332 9.54357Z" fill="#190100"/>
		<path d="M8.20919 8.98571C8.3752 8.98034 8.54127 8.99351 8.70436 9.02496C8.8391 9.04088 8.91584 8.99995 8.85558 8.84701C8.74031 8.58892 8.7316 8.29574 8.83136 8.03126C8.93112 7.76679 9.13128 7.55241 9.38829 7.43475C9.79356 7.1703 10.2476 6.98956 10.7238 6.90317C10.8853 6.88256 11.0493 6.90749 11.1974 6.97521C11.3455 7.04292 11.4717 7.15068 11.5618 7.28633C11.6755 7.4063 11.7289 7.63659 11.8813 7.63886C12.0467 7.63886 12.0996 7.41142 12.1775 7.2727C12.4532 6.78887 12.8944 6.87473 13.3196 6.9168C13.7918 6.9867 14.2413 7.16515 14.6329 7.43815C14.7604 7.51295 14.8647 7.6216 14.9343 7.75206C15.0038 7.88252 15.0359 8.02968 15.0269 8.17725C15.0294 8.35853 15.0103 8.53946 14.97 8.71622C14.9314 8.88224 14.9968 8.90442 15.1366 8.86235C15.2304 8.83392 15.3288 8.82142 15.4209 8.79413C15.5911 8.74016 15.7741 8.74267 15.9428 8.80128C16.1114 8.85988 16.2566 8.97143 16.3567 9.11931C16.7581 9.58666 17.0183 10.1585 17.1071 10.7681C17.1249 10.865 17.1197 10.9646 17.0919 11.0591C17.0642 11.1536 17.0147 11.2403 16.9474 11.3122C16.7965 11.4917 16.6205 11.6485 16.4249 11.7778C16.3112 11.8466 16.289 11.9029 16.4221 11.9859C17.1674 12.4504 17.218 12.4913 17.0423 13.5414C16.9431 14.0093 16.7299 14.4454 16.4215 14.811C16.3575 14.8807 16.2792 14.9356 16.192 14.972C16.1047 15.0085 16.0106 15.0255 15.9161 15.0219C15.7048 15.0395 15.492 15.0215 15.2867 14.9685C15.1372 14.9338 15.1116 14.9958 15.1395 15.1242C15.1747 15.2863 15.2026 15.4495 15.2367 15.6121C15.26 15.7119 15.257 15.8161 15.228 15.9145C15.199 16.0128 15.145 16.102 15.0712 16.1732C14.5696 16.6958 13.9024 17.0283 13.1832 17.1141C13.0544 17.1203 12.9262 17.0937 12.8105 17.037C12.6948 16.9802 12.5954 16.8951 12.5214 16.7895C12.4133 16.6738 12.3153 16.549 12.2286 16.4165C12.1485 16.3028 12.0763 16.2875 12.0194 16.4222C11.9687 16.561 11.8909 16.6882 11.7903 16.7964C11.6898 16.9046 11.5686 16.9916 11.434 17.0523C11.2993 17.113 11.1539 17.1462 11.0063 17.1498C10.8586 17.1535 10.7117 17.1277 10.5742 17.0738C10.0712 16.9639 9.59958 16.7413 9.19498 16.4228C9.12693 16.3623 9.07311 16.2875 9.03734 16.2038C9.00156 16.12 8.98474 16.0294 8.98806 15.9384C8.97099 15.7349 8.98477 15.53 9.02897 15.3306C9.07446 15.139 9.00114 15.0998 8.8266 15.1544C8.71972 15.1879 8.60315 15.1902 8.49456 15.2209C8.34403 15.2614 8.18463 15.2538 8.03864 15.1992C7.89265 15.1445 7.76738 15.0456 7.68043 14.9162C7.27923 14.46 7.01188 13.9018 6.90784 13.3032C6.88571 13.1343 6.91175 12.9625 6.98297 12.8077C7.05418 12.6529 7.16763 12.5213 7.31032 12.4282C7.42403 12.3236 7.64462 12.2758 7.64462 12.1189C7.64462 11.9529 7.41723 11.9205 7.29159 11.8438C7.12052 11.7306 6.99083 11.5648 6.92203 11.3716C6.85324 11.1783 6.84905 10.9679 6.9101 10.7721C6.97494 10.2916 7.14626 9.8316 7.41154 9.42575C7.48015 9.27689 7.59456 9.15389 7.73807 9.07472C7.88158 8.99554 8.04668 8.96435 8.20919 8.98571ZM15.3771 13.8399C15.4979 13.8596 15.6218 13.8383 15.7291 13.7794C15.8365 13.7206 15.921 13.6277 15.9695 13.5153C16.0069 13.4032 16.0076 13.2821 15.9714 13.1696C15.9352 13.0571 15.864 12.9591 15.7682 12.8899C15.6687 12.8084 15.5545 12.7469 15.4317 12.7085C15.1447 12.6141 14.8681 12.4907 14.6062 12.3401C14.523 12.3086 14.451 12.2532 14.3993 12.1808C14.3476 12.1084 14.3186 12.0223 14.3158 11.9334C14.3131 11.8444 14.3368 11.7567 14.3839 11.6812C14.4311 11.6058 14.4995 11.546 14.5806 11.5095C14.8556 11.3371 15.1449 11.1888 15.4453 11.066C15.5787 11.0117 15.6969 10.9259 15.7899 10.8158C15.8577 10.7386 15.902 10.6435 15.9175 10.5418C15.9329 10.4401 15.9188 10.3361 15.8769 10.2422C15.8315 10.1544 15.7623 10.0811 15.6773 10.0308C15.5922 9.98052 15.4947 9.95527 15.3959 9.95793C15.2594 9.95383 15.1241 9.98412 15.0025 10.046C14.7174 10.1846 14.4215 10.2998 14.1178 10.3906C13.6499 10.5043 13.3947 10.2626 13.4891 9.79133C13.5544 9.50418 13.6465 9.22382 13.7642 8.95389C13.8294 8.80044 13.8551 8.63315 13.8392 8.46721C13.8357 8.37963 13.809 8.29456 13.762 8.22059C13.715 8.14662 13.6493 8.0864 13.5715 8.04601C13.4937 8.00561 13.4066 7.98648 13.3191 7.99056C13.2315 7.99464 13.1466 8.02177 13.0729 8.06922C12.9055 8.17548 12.7828 8.33927 12.7278 8.52974C12.6231 8.86113 12.4759 9.17759 12.29 9.47125C12.2515 9.5322 12.1984 9.58253 12.1354 9.61765C12.0725 9.65277 12.0017 9.67157 11.9296 9.6723C11.8575 9.67304 11.7864 9.65571 11.7227 9.62188C11.6591 9.58806 11.6049 9.53879 11.5652 9.47864C11.4031 9.25092 11.2681 9.0052 11.1626 8.74638C11.1064 8.60642 11.0389 8.47124 10.9608 8.34215C10.8886 8.23082 10.7811 8.1469 10.6556 8.10382C10.5301 8.06074 10.3937 8.06097 10.2684 8.10448C10.1473 8.16895 10.0528 8.27392 10.0014 8.40103C9.94996 8.52815 9.94482 8.66932 9.98693 8.79982C10.0338 8.94316 10.0894 9.08345 10.1535 9.21994C10.2728 9.46433 10.3613 9.72254 10.4173 9.98864C10.4356 10.0601 10.4352 10.135 10.4163 10.2063C10.3974 10.2776 10.3605 10.3428 10.3092 10.3958C10.2579 10.4488 10.1938 10.4877 10.1232 10.5089C10.0526 10.5301 9.97763 10.5328 9.90563 10.5168C9.6966 10.485 9.49169 10.4305 9.2945 10.3542C9.11826 10.2871 8.94428 10.2104 8.76349 10.1592C8.6264 10.112 8.47692 10.1158 8.34237 10.1697C8.20782 10.2237 8.09717 10.3243 8.03066 10.4531C7.98749 10.5956 7.99786 10.749 8.05984 10.8844C8.12182 11.0198 8.23113 11.1278 8.36721 11.1883C8.46045 11.2366 8.56167 11.2707 8.65946 11.3099C8.92368 11.4007 9.17751 11.5192 9.41671 11.6636C9.49395 11.6976 9.55985 11.753 9.60655 11.8233C9.65326 11.8937 9.67886 11.9759 9.68029 12.0603C9.68173 12.1447 9.65893 12.2277 9.61464 12.2996C9.57035 12.3714 9.50639 12.4291 9.43035 12.4658C9.17231 12.6371 8.89603 12.7791 8.60657 12.8893C8.43483 12.9506 8.28495 13.0612 8.17564 13.2071C8.11804 13.2806 8.08215 13.3686 8.07199 13.4614C8.06183 13.5542 8.0778 13.6479 8.11814 13.7321C8.15847 13.8163 8.22153 13.8875 8.30021 13.9377C8.37888 13.9879 8.47005 14.0151 8.56337 14.0162C8.73725 14.0263 8.91076 13.9907 9.06652 13.9127C9.36215 13.7603 9.67577 13.6457 10 13.5716C10.072 13.5535 10.1473 13.5541 10.2189 13.5734C10.2906 13.5927 10.3561 13.63 10.4092 13.6817C10.4624 13.7335 10.5014 13.7979 10.5226 13.869C10.5438 13.9401 10.5465 14.0154 10.5304 14.0878C10.4836 14.348 10.4096 14.6025 10.3099 14.8474C10.2478 14.993 10.1964 15.1429 10.1558 15.2959C10.1236 15.4253 10.1366 15.5619 10.1926 15.6829C10.2486 15.8039 10.3444 15.9021 10.464 15.9612C10.586 16.0041 10.7191 16.0041 10.8411 15.9612C10.9632 15.9183 11.067 15.8351 11.1354 15.7252C11.1985 15.6225 11.2507 15.5135 11.2911 15.4C11.3933 15.0997 11.5279 14.8115 11.6925 14.5404C11.7291 14.4736 11.7827 14.4175 11.8478 14.3779C11.9128 14.3383 11.9872 14.3165 12.0633 14.3147C12.1395 14.3128 12.2148 14.331 12.2817 14.3675C12.3487 14.4039 12.4048 14.4572 12.4447 14.5222C12.5941 14.731 12.7183 14.9568 12.8148 15.1948C12.8775 15.373 12.9662 15.541 13.078 15.6934C13.1517 15.7851 13.2512 15.8527 13.3637 15.8874C13.4761 15.9222 13.5964 15.9225 13.7091 15.8884C13.8099 15.8438 13.8944 15.7691 13.9509 15.6745C14.0074 15.5799 14.0332 15.4701 14.0246 15.3602C14.0218 15.1936 13.9797 15.0299 13.9018 14.8826C13.7729 14.6262 13.6713 14.3569 13.5988 14.0793C13.4999 13.6517 13.7341 13.4016 14.1673 13.4778C14.463 13.5401 14.7513 13.6335 15.0275 13.7563C15.1372 13.8075 15.2561 13.836 15.3771 13.8399Z" fill="#190100"/>
		<path d="M10.9261 11.9632C10.9282 11.8233 10.9582 11.6852 11.0143 11.5571C11.0705 11.429 11.1516 11.3133 11.253 11.217C11.3544 11.1206 11.474 11.0455 11.6048 10.9959C11.7357 10.9464 11.875 10.9234 12.0148 10.9284C12.2971 10.9335 12.5661 11.0488 12.7644 11.2497C12.9627 11.4507 13.0744 11.7213 13.0757 12.0035C13.0671 12.2895 12.9478 12.561 12.7429 12.7607C12.5379 12.9603 12.2634 13.0725 11.9773 13.0735C11.6909 13.0649 11.4196 12.9433 11.2227 12.7352C11.0257 12.5272 10.9191 12.2496 10.9261 11.9632Z" fill="#190100"/>
	</g>
	<defs>
		<clipPath id="clip0_11_276">
			<rect width="18" height="18" fill="white" transform="translate(3 3)"/>
		</clipPath>
	</defs>
</svg>
