<svg version="1.2" xmlns="http://www.w3.org/2000/svg" viewBox="0 0 1431 1418" width="1431" height="1418">
	<title>Q3-2023-Results-Presentation-1-pdf-svg-svg</title>

	<style>
		.s0 { fill: #ffd500 } 
		.s1 { fill: #005095 } 
		.s2 { fill: #b81178 } 
		.s3 { fill: #00855a } 
		.s4 { fill: #ec6608 } 
		.s5 { fill: #d51317 } 
	</style>
	<g id="Clip-Path: Clip-Path: Page 1" clip-path="url(#cp1)">
		<g id="Clip-Path: Page 1">
			<g id="Page 1">
				<path id="Path 12" class="s0" d="m688.7 1172.4c-298.5-29.1-560-172.4-655.6-335.6 4.6 29.4 40 98.6 55.6 141.6 10.6 32.5 29.1 58.6 36.7 81.8 121.8 87.7 263.1 134.1 457.1 152.3 198.5 18.5 373.9-6 510.9-72.2-121.4 32.1-253.8 44.7-404.7 32.1zm-230.7-597.4c-104.9-112.3-193.9-223.1-274-332.7-10.9 13.9-24.5 32.4-33.8 51-20.2 23.1-32.4 47.6-43.3 69.1 77.1 84.8 164.8 169.5 257.1 254.3 266.1 241.6 526.2 398.8 735.4 512.7-189-137.1-413.7-307.9-641.4-554.4zm418.3-197c-73.8-150.9-135.3-252.6-223-369.7-10.9 3.3-29.1 10.9-63.2 17.2-26.2 4.3-50.7 1.3-72.2 8.9 127.8 134.1 230.7 274.4 344.5 479 131.1 228 194 411.1 247.9 605.4-21.5-223.4-90.7-454.5-234-740.8z"/>
				<path id="Path 13" class="s1" d="m751.9 1406.8c-369.3 0-669.5-289.7-669.5-648.5 0-358.8 298.5-640.5 669.5-640.5 360.1 0 658.6 270.8 670.8 619v-26.1c0-391.3-318.7-710-710.8-710-392.6 0-710.9 318.7-710.9 710 0 389.6 318.3 706.7 710.9 706.7 76.7 0 150.5-10.6 220-35.5-58.5 16.9-117.1 24.9-180 24.9z"/>
				<path id="Path 14" class="s2" d="m370.3 410.4c250.5-258.8 646-278.7 880-43.3 143.3 141.7 198.6 358.8 150.9 545.1 64.5-220.1 24.5-472.6-143.3-640.4-242.9-246.3-656.9-231.1-912.4 26.1-166.1 172.5-224.7 406.5-177.1 619-8.9-177.1 60.3-363.5 201.9-506.5z"/>
				<path id="Path 15" class="s3" d="m1389 773.6c-3.3-156.9-61.6-300.3-172.5-374.1-210.8-146.3-538.7-32.4-743.3 264.8-106.2 157.2-156.8 328-150.9 479-46-175.4-9.2-392.6 121.8-582.3 204.5-300.2 560-411.1 792.3-252.2 138.7 95.4 204.9 266.2 192.3 451.2 0 0-3 53.6-9 76.8-4.6 21.5-18.5 69.5-23.1 83.1-3 15.5-7.6-146.3-7.6-146.3z"/>
				<path id="Path 16" class="s4" d="m685.7 682.9c-209.5 221.7-257.1 515.7-106.2 659 7.6 6.3 12.2 10.9 21.5 16.9-134-133.8-94-386.3 89.3-585.2 170.8-183.1 457.1-263.2 593.8-129.1 123.1 113.8 106.2 337.3-27.5 522 187.6-217.2 221.4-491.3 78.4-627-150.9-143-440.1-80.1-649.3 143.4z"/>
				<path id="Path 17" class="s5" d="m879.6 909.3c-141.6 121.4-186.3 297.2-104.9 392.5 64.9 75.5 189.3 77.2 307.8 16.9-99.9 44.7-201.5 40.1-256.8-21.5-73.8-84.7-33.8-241.6 90.7-347.9 121.4-106.2 281.6-124.8 352.4-40 55.3 63.2 47.7 167.8-12.2 257.2 76.8-108 92.3-232.7 27.5-308.2-81.5-92.4-264.5-70.8-404.5 51z"/>
			</g>
		</g>
	</g>
</svg>